<svg width="178" height="56" viewBox="0 0 178 56" fill="none" xmlns="http://www.w3.org/2000/svg">
<path d="M8.43459 0H59.0473V19.2676H8.43459V0Z" fill="#03EF62"/>
<path d="M50.6127 24.085L59.0482 19.268H8.43545L0 24.085H50.6127Z" fill="#7933FF"/>
<path d="M0 4.81691L8.43545 0V19.2676L0 24.0846V4.81691Z" fill="white"/>
<path d="M15.9603 3.9583H23.1649V5.90985H17.9118V8.34562H22.6366V10.2825H17.9118V14.5231H15.9603V3.9583ZM33.1031 14.5231H30.9021L29.0092 10.7667H27.3071V14.5231H25.3556V3.9583H29.6842C31.3863 3.9583 33.0004 5.55769 33.0004 7.37718C33.0004 8.69778 32.1493 9.88631 31.0341 10.4439L33.1031 14.5231ZM29.6842 5.90985H27.3071V8.82984H29.6842C30.4472 8.82984 31.0488 8.14019 31.0488 7.37718C31.0488 6.61417 30.4472 5.90985 29.6842 5.90985ZM35.1378 3.9583H42.5184V5.90985H37.0893V8.27225H41.9608V10.2091H37.0893V12.5715H42.5184V14.5231H35.1378V3.9583ZM44.92 3.9583H52.3006V5.90985H46.8715V8.27225H51.743V10.2091H46.8715V12.5715H52.3006V14.5231H44.92V3.9583Z" fill="black"/>
<path d="M17.0938 31.1356L27.3505 25.0713V49.0036L17.0938 55.2716V31.1356Z" fill="#7933FF"/>
<path d="M166.814 55.3929L177.782 49.0036H27.3516L17.0938 55.2716L166.814 55.3929Z" fill="#03EF62"/>
<path d="M27.3504 25.0713H177.782V49.0036H99.2891H72.5385H27.3504V25.0713Z" fill="#FFFBF3"/>
<path d="M48.478 44.0818L43.4021 30.9829H40.7641L35.6701 44.0818H38.2899L39.5816 40.7343H44.5665L45.8582 44.0818H48.478ZM40.9097 37.314C41.3645 36.1861 41.7102 35.2218 42.0558 34.1666H42.074C42.4561 35.2218 42.8017 36.1861 43.2384 37.314L43.6932 38.4966H40.4548L40.9097 37.314ZM56.3877 44.191C59.6624 44.191 61.8092 41.9532 62.2276 39.479H59.717C59.2622 40.9162 57.9159 41.7713 56.3877 41.7713C54.0408 41.7713 52.1851 39.8792 52.1851 37.5323C52.1851 35.1854 54.0408 33.2934 56.3877 33.2934C57.8431 33.2934 59.2986 34.2758 59.6988 35.6403H62.2095C61.8092 33.4025 59.717 30.8737 56.3877 30.8737C52.7127 30.8737 49.7654 33.8574 49.7654 37.5323C49.7654 41.2073 52.7127 44.191 56.3877 44.191ZM70.9326 44.191C74.2073 44.191 76.3541 41.9532 76.7726 39.479H74.2619C73.8071 40.9162 72.4608 41.7713 70.9326 41.7713C68.5857 41.7713 66.73 39.8792 66.73 37.5323C66.73 35.1854 68.5857 33.2934 70.9326 33.2934C72.388 33.2934 73.8435 34.2758 74.2437 35.6403H76.7544C76.3541 33.4025 74.2619 30.8737 70.9326 30.8737C67.2576 30.8737 64.3104 33.8574 64.3104 37.5323C64.3104 41.2073 67.2576 44.191 70.9326 44.191ZM79.5102 30.9829V44.0818H88.6613V41.6622H81.9299V38.7331H87.97V36.3316H81.9299V33.4025H88.6613V30.9829H79.5102ZM91.0203 39.4972C91.0385 42.4081 93.2399 44.191 95.8779 44.191C98.4795 44.191 100.317 42.5718 100.317 40.2431C100.317 38.2237 99.098 36.9866 96.642 36.368L95.1501 35.9859C94.1677 35.7312 93.8766 35.1854 93.8766 34.6579C93.8766 33.9483 94.5134 33.1842 95.6413 33.1842C96.7511 33.1842 97.5152 33.9847 97.5152 35.0763H99.8985C99.8985 32.8204 98.2975 30.8737 95.7505 30.8737C93.4218 30.8737 91.3842 32.4201 91.3842 34.6397C91.3842 36.4044 92.6395 37.787 94.7681 38.3146L96.2963 38.6967C97.2605 38.9332 97.8245 39.5154 97.8245 40.2795C97.8245 41.0618 97.1878 41.8623 95.8779 41.8623C94.4406 41.8623 93.4764 41.0072 93.4582 39.4972H91.0203ZM102.332 39.4972C102.35 42.4081 104.551 44.191 107.189 44.191C109.791 44.191 111.628 42.5718 111.628 40.2431C111.628 38.2237 110.409 36.9866 107.953 36.368L106.462 35.9859C105.479 35.7312 105.188 35.1854 105.188 34.6579C105.188 33.9483 105.825 33.1842 106.953 33.1842C108.063 33.1842 108.827 33.9847 108.827 35.0763H111.21C111.21 32.8204 109.609 30.8737 107.062 30.8737C104.733 30.8737 102.696 32.4201 102.696 34.6397C102.696 36.4044 103.951 37.787 106.079 38.3146L107.608 38.6967C108.572 38.9332 109.136 39.5154 109.136 40.2795C109.136 41.0618 108.499 41.8623 107.189 41.8623C105.752 41.8623 104.788 41.0072 104.77 39.4972H102.332Z" fill="black"/>
<path d="M130.186 38.0253C130.004 38.7166 129.768 39.7354 129.641 40.4632H129.622C129.459 39.7536 129.186 38.7166 129.004 38.0253L127.13 31.112H124.637L122.764 38.0253C122.582 38.7166 122.345 39.7354 122.181 40.4632H122.163C122.018 39.7354 121.799 38.7166 121.617 38.0253L119.762 31.112H117.287L120.89 44.2109H123.382L125.256 37.2976C125.456 36.5517 125.711 35.5329 125.893 34.7688H125.911C126.075 35.5147 126.329 36.5699 126.53 37.2976L128.403 44.2109H130.896L134.48 31.112H132.006L130.186 38.0253ZM136.799 31.112V44.2109H145.95V41.7913H139.219V38.8622H145.259V36.4607H139.219V33.5316H145.95V31.112H136.799ZM148.928 31.112V44.2109H158.079V41.7913H151.348V38.8622H157.388V36.4607H151.348V33.5316H158.079V31.112H148.928ZM172.136 44.2109L166.86 36.8428L171.827 31.112H168.698L163.476 37.1338V31.112H161.057V44.2109H163.476V40.4814L165.132 38.5711L169.171 44.2109H172.136Z" fill="black"/>
</svg>
